- 
http://www.Speed.Cd 
       
http://www.Speed.Cd      fast  and The Hottest Private Tracker on the net

(((--Submit for invite!!--)))

Please Seed back to make the speed Faster!!!

------------------nfo--------------------------
-[IMG]http://img651.imageshack.us/img651/3559/pokemonzoroarkmasterofi.jpg[/IMG]


[color=blue][size=4][b]Pokemon-Zoroark.Master.of.Illusions.2011.DVDRip.XVID.AC3.HQ.Hive-CM8[/b][/size][/color]


[b]Thx Hive

CM8 Doing It Right The First Time :D


Source: DVD-R

Video: 720x400 @bitrate 1600 2pass
Audio: English AC3 2.0 Stereo
Sample: yes, included[/b]


[url]http://www.imdb.com/title/tt1690470/[/url]


General
Complete name                    : Pokemon-Zoroark.Master of Illusions.2011.DVDRip.XVID.AC3.HQ.Hive-CM8.avi
Format                           : AVI
Format/Info                      : Audio Video Interleave
File size                        : 1.22 GiB
Duration                         : 1h 35mn
Overall bit rate                 : 1 834 Kbps
Writing application              : Nandub v1.0rc2
Writing library                  : Nandub build 1853/release

Video
ID                               : 0
Format                           : MPEG-4 Visual
Format profile                   : Advanced Simple@L5
Format settings, BVOP            : 1
Format settings, QPel            : Yes
Format settings, GMC             : No warppoints
Format settings, Matrix          : Default (H.263)
Muxing mode                      : Packed bitstream
Codec ID                         : XVID
Codec ID/Hint                    : XviD
Duration                         : 1h 35mn
Bit rate                         : 1 600 Kbps
Width                            : 720 pixels
Height                           : 400 pixels
Display aspect ratio             : 16:9
Frame rate                       : 25.000 fps
Color space                      : YUV
Chroma subsampling               : 4:2:0
Bit depth                        : 8 bits
Scan type                        : Progressive
Compression mode                 : Lossy
Bits/(Pixel*Frame)               : 0.222
Stream size                      : 1.07 GiB (87%)
Writing library                  : XviD 1.2.1 (UTC 2008-12-04)

Audio
ID                               : 1
Format                           : AC-3
Format/Info                      : Audio Coding 3
Mode extension                   : CM (complete main)
Codec ID                         : 2000
Duration                         : 1h 35mn
Bit rate mode                    : Constant
Bit rate                         : 224 Kbps
Channel(s)                       : 2 channels
Channel positions                : Front: L R
Sampling rate                    : 48.0 KHz
Bit depth                        : 16 bits
Compression mode                 : Lossy
Stream size                      : 153 MiB (12%)
Alignment                        : Split accross interleaves
Interleave, duration             : 40 ms (1.00 video frame)
Interleave, preload duration     : 500 ms


Plot:
The Pokemon Baccer World Cup is the most anticipated event of the year, and as hundreds
flock to Crown City to watch the exciting competition unfold, Ash, Pikachu, and their
friends encounter a mysterious new Pokemon they have never seen before.


Cast:
Sarah Natochenny  ...    Ash Ketchum (voice)
Wayne Grayson     ...    Karl (voice)
Emily Bauer       ...    Dawn (voice)
Bella Hudson      ...    Rowena (voice)


[img]http://img192.imageshack.us/img192/8109/popoppoopo.png[/img]
[img]http://img189.imageshack.us/img189/2637/47527532.png[/img]
[img]http://img62.imageshack.us/img62/4180/popotd.png[/img]
[img]http://img713.imageshack.us/img713/9413/popopol.png[/img]
[img]http://img813.imageshack.us/img813/9035/popopopo.png[/img]



Greetz

ViSiON,SiC,SANTi,3LT0N,YanKeeS,MAGNET,THC,T0XiC,LKRG,FANTASIA-PLAY,FANTASIA-M,FLAWL3SS,
D2U,WBZ,BHRG,NOVA,Vik,Rapeseed,SAFC,goldadvance,MEMORY100,KaN1vE,Unevano,Pinnz,Wayne
Mr Hive,cedrict wink,and all P2P groups
Great Work Guys :D

FYS

LOOKING FOR ANYTHING YOU WANT TO LOOK AND SOUND BETTER

CM8@hushmail.com